<!DOCTYPE svg PUBLIC "-//W3C//DTD SVG 20010904//EN" "http://www.w3.org/TR/2001/REC-SVG-20010904/DTD/svg10.dtd">
<svg version="1.0" xmlns="http://www.w3.org/2000/svg" width="1598px" height="592px" viewBox="0 0 15980 5920" preserveAspectRatio="xMidYMid meet">
<g id="layer1" fill="#ffffff" stroke="none">
 <path d="M1939 5905 c-204 -30 -359 -164 -425 -365 -16 -49 -18 -108 -22 -542 l-3 -488 25 -25 c24 -24 30 -25 149 -25 90 0 128 4 143 14 18 14 19 34 24 503 5 454 7 492 25 538 28 70 90 130 156 149 146 44 284 -11 340 -137 24 -52 24 -53 29 -540 l5 -489 24 -19 c20 -16 40 -19 147 -19 111 0 126 2 144 20 19 19 20 33 20 498 0 527 -3 553 -63 666 -116 218 -372 311 -718 261z"/>
 <path d="M4782 5905 c-74 -10 -111 -21 -180 -55 -170 -84 -313 -263 -362 -454 -105 -412 92 -808 465 -933 73 -25 93 -27 240 -27 146 0 167 2 238 26 244 82 421 284 478 543 19 86 16 284 -5 370 -10 39 -38 113 -63 165 -38 79 -59 108 -132 180 -116 117 -212 166 -362 186 -124 16 -193 16 -317 -1z m314 -259 c110 -51 185 -157 220 -312 22 -102 15 -280 -15 -375 -60 -189 -193 -286 -380 -278 -226 11 -361 197 -361 498 1 269 113 451 304 491 64 14 174 3 232 -24z"/>
 <path d="M9445 5904 c-115 -23 -207 -75 -310 -179 -150 -149 -204 -279 -212 -507 -5 -118 -2 -151 17 -233 34 -151 85 -243 194 -350 104 -104 188 -151 326 -186 73 -19 103 -21 229 -16 164 6 228 20 340 75 142 69 261 216 278 340 9 68 0 72 -151 72 -148 0 -142 3 -199 -87 -37 -59 -74 -91 -137 -122 -48 -23 -67 -26 -155 -26 -89 0 -106 3 -157 28 -116 57 -190 164 -222 319 -72 349 95 636 382 655 136 10 255 -25 330 -95 l32 -30 0 -106 0 -106 -159 0 c-91 0 -162 -4 -166 -10 -3 -5 9 -50 26 -100 47 -136 34 -130 319 -130 228 0 238 1 256 21 17 19 19 41 22 260 3 219 1 242 -17 283 -39 89 -229 206 -378 232 -101 18 -394 16 -488 -2z"/>
 <path d="M12356 5905 c-339 -49 -587 -391 -562 -776 18 -290 168 -522 411 -635 106 -49 214 -68 359 -61 209 9 334 63 477 206 150 151 211 305 211 536 0 155 -20 245 -84 375 -59 120 -178 239 -299 299 -133 66 -311 85 -513 56z m319 -259 c111 -51 186 -157 221 -312 24 -112 16 -283 -19 -383 -67 -192 -191 -279 -381 -269 -68 3 -91 10 -144 38 -137 73 -213 235 -213 455 -1 265 109 447 298 495 61 15 179 3 238 -24z"/>
 <path d="M13849 5905 c-204 -30 -360 -164 -425 -365 -16 -49 -18 -109 -22 -542 l-4 -487 26 -26 c24 -24 30 -25 148 -25 96 0 129 4 146 16 l22 15 0 448 c0 280 4 469 11 506 22 120 79 192 175 221 140 42 280 -15 335 -139 24 -52 24 -53 29 -540 l5 -489 24 -19 c20 -16 40 -19 147 -19 111 0 126 2 144 20 19 19 20 33 20 498 0 525 -2 548 -61 664 -42 84 -129 167 -221 213 -122 60 -305 78 -499 50z"/>
 <path d="M0 5853 c0 -20 5 -53 11 -72 22 -69 451 -1256 460 -1273 23 -43 59 -49 269 -46 198 3 200 3 224 28 36 37 514 1356 499 1379 -8 13 -34 16 -155 19 -144 3 -144 2 -169 -23 -17 -19 -79 -186 -220 -596 l-195 -569 -89 272 c-48 150 -90 279 -92 286 -4 9 34 12 170 12 97 0 178 3 180 8 3 4 -13 56 -35 115 -30 78 -48 113 -66 125 -21 14 -59 18 -190 22 l-164 5 -53 148 c-29 82 -63 159 -75 172 -23 24 -28 25 -167 25 l-143 0 0 -37z"/>
 <path d="M2957 5872 c-16 -17 -17 -80 -17 -695 0 -671 0 -677 21 -698 20 -20 27 -20 417 -17 383 3 399 4 460 26 118 42 192 107 241 211 24 52 26 66 26 191 0 127 -2 138 -28 191 -42 85 -98 143 -179 184 -39 19 -79 35 -89 35 -11 0 -19 3 -19 6 0 3 92 132 205 286 112 155 202 285 199 289 -3 5 -81 9 -175 9 l-169 0 -35 -32 c-36 -35 -465 -692 -465 -713 0 -26 29 -32 168 -38 171 -7 212 -23 250 -97 31 -62 31 -169 -1 -224 -40 -71 -73 -80 -299 -85 l-198 -3 0 579 c0 549 -1 581 -18 596 -15 14 -42 17 -149 17 -113 0 -132 -2 -146 -18z"/>
 <path d="M5847 5872 c-16 -17 -17 -80 -17 -700 l0 -681 22 -15 c19 -14 72 -16 378 -16 471 0 537 12 650 117 74 68 106 132 121 240 32 226 -72 407 -276 478 l-62 21 156 227 c86 124 159 223 162 219 4 -4 106 -286 228 -627 192 -539 225 -624 252 -648 l31 -28 209 3 c208 3 209 3 233 28 36 37 513 1356 499 1379 -8 13 -34 16 -155 19 -127 2 -148 0 -167 -15 -24 -20 -45 -77 -277 -755 -76 -225 -141 -408 -144 -408 -4 0 -168 501 -178 546 -3 12 28 14 172 14 113 0 177 4 181 11 4 6 -10 55 -30 110 -26 69 -47 107 -67 124 -29 24 -34 25 -192 25 l-163 0 -53 153 c-35 102 -60 159 -77 175 -24 22 -28 22 -303 22 l-280 0 -30 -27 c-31 -29 -440 -695 -440 -718 0 -26 29 -33 171 -38 161 -5 200 -16 243 -68 50 -59 56 -196 12 -262 -41 -62 -77 -71 -298 -75 l-198 -4 0 574 c0 503 -2 576 -16 596 -14 21 -22 22 -148 22 -116 0 -135 -2 -149 -18z"/>
 <path d="M10536 5868 c-14 -20 -16 -102 -16 -691 l0 -668 25 -24 24 -25 353 0 c389 1 465 8 562 56 70 34 139 106 174 182 22 48 27 75 30 163 6 164 -35 274 -132 354 -45 37 -140 85 -168 85 -10 0 -18 3 -18 6 0 3 92 132 205 287 112 154 202 284 199 289 -3 4 -81 8 -175 8 l-169 0 -35 -32 c-55 -52 -456 -688 -453 -718 l3 -25 148 -7 c177 -8 217 -24 255 -98 31 -62 31 -169 -1 -224 -40 -71 -73 -80 -299 -85 l-198 -3 0 579 c0 549 -1 581 -18 596 -15 14 -42 17 -150 17 -124 0 -132 -1 -146 -22z"/>
 <path d="M14867 5872 c-16 -17 -17 -80 -17 -694 l0 -675 24 -22 24 -23 364 4 c346 4 366 5 426 26 80 29 133 62 189 119 79 82 103 155 103 313 0 162 -34 256 -119 333 -102 92 -206 117 -487 117 l-194 0 0 243 c0 224 -2 245 -18 260 -15 14 -42 17 -149 17 -113 0 -132 -2 -146 -18z m670 -776 c117 -49 158 -211 81 -319 -39 -55 -94 -70 -275 -75 l-163 -5 0 213 0 212 158 -4 c119 -4 167 -9 199 -22z"/>
 <path d="M0 3573 c0 -20 16 -64 84 -231 84 -205 157 -477 198 -737 17 -106 22 -200 27 -500 5 -318 8 -374 23 -400 22 -40 66 -81 101 -94 20 -8 500 -11 1552 -11 1484 0 1523 0 1546 19 22 17 24 28 27 120 4 101 4 101 -26 131 l-30 30 -1385 0 -1384 0 -7 263 c-3 144 -9 277 -12 295 l-6 32 1399 0 1400 0 21 23 c20 21 22 34 22 128 0 164 59 148 -571 151 l-524 3 130 76 c72 42 166 96 210 121 l80 44 275 -73 c151 -40 284 -72 294 -70 22 2 45 74 46 135 0 82 -71 162 -165 183 l-56 12 180 77 c100 42 186 81 191 86 8 8 -21 34 -92 86 -126 92 -135 97 -203 108 -100 16 -160 -1 -395 -116 -414 -202 -752 -403 -1025 -608 l-87 -66 -214 0 -214 0 0 250 0 250 374 0 c245 0 377 4 381 10 4 6 -8 54 -25 106 -37 111 -73 159 -131 174 -26 7 -190 10 -477 8 l-437 -3 -38 -24 c-21 -13 -50 -42 -65 -64 l-27 -40 -3 -334 -3 -333 -143 0 -143 0 -22 113 c-32 160 -76 333 -122 472 -30 95 -46 127 -71 152 -59 55 -69 57 -270 61 -178 4 -188 3 -188 -15z"/>
 <path d="M9985 3555 l-25 -24 0 -352 c0 -343 0 -351 -19 -338 -10 8 -70 53 -132 100 -305 232 -674 415 -1059 526 -158 45 -195 48 -242 20 -31 -19 -221 -268 -212 -277 5 -5 49 -16 97 -25 294 -54 678 -211 1021 -417 l139 -83 -659 -5 -659 -5 0 -87 c0 -80 2 -90 30 -129 17 -23 50 -53 74 -66 l44 -23 789 0 788 0 0 -100 0 -100 -677 -2 -678 -3 -3 -619 -2 -619 -54 51 c-62 59 -118 80 -165 64 -30 -11 -245 -154 -255 -171 -3 -4 40 -47 95 -95 192 -169 382 -389 535 -618 l86 -128 199 0 c167 0 201 2 205 15 4 8 -26 67 -68 137 -40 67 -74 126 -76 130 -2 4 175 8 393 8 l396 0 30 -65 c17 -35 46 -106 64 -157 l33 -93 225 -3 225 -2 -20 65 c-10 37 -35 109 -53 161 l-35 94 654 0 655 0 20 26 c18 23 21 41 21 124 0 83 -3 101 -21 124 l-20 26 -640 0 -639 0 0 105 0 105 555 0 c542 0 555 0 575 20 18 18 20 33 20 139 0 113 -1 121 -22 135 -20 14 -91 16 -575 16 l-553 0 0 100 0 100 558 0 c529 0 560 1 575 18 14 15 17 41 17 134 0 107 -2 116 -23 136 l-23 22 -552 0 -552 0 0 105 0 105 640 0 c627 0 640 0 660 20 18 18 20 33 20 129 0 92 -3 112 -19 132 l-19 24 -641 3 -641 2 0 100 0 100 708 0 709 0 21 23 c20 21 22 34 22 129 0 89 -3 109 -19 129 l-19 24 -522 5 -522 5 153 101 c315 208 539 316 826 398 64 19 119 38 120 42 4 13 -184 252 -215 272 -44 29 -105 20 -231 -32 -337 -139 -719 -372 -988 -601 l-43 -37 0 349 0 349 -28 27 -28 27 -163 0 c-159 0 -162 0 -186 -25z m-25 -1800 l0 -105 -422 -2 -423 -3 0 -92 c0 -87 1 -93 31 -130 17 -21 48 -48 70 -60 38 -22 45 -23 392 -23 l352 0 0 -100 0 -100 -422 -2 -423 -3 -3 -77 c-3 -84 13 -132 60 -175 54 -51 72 -53 443 -53 l345 0 0 -105 0 -105 -470 0 -470 0 0 620 0 620 470 0 470 0 0 -105z"/>
 <path d="M12507 3563 c-12 -11 -8 -3294 4 -3336 13 -49 63 -105 114 -128 38 -18 114 -19 1628 -19 l1589 0 29 29 29 29 0 1639 c0 1571 -1 1640 -19 1678 -22 48 -54 79 -103 100 -33 13 -217 15 -1651 15 -888 0 -1617 -3 -1620 -7z m2973 -1738 l0 -1445 -555 0 -555 0 0 75 0 75 440 0 c523 0 480 -11 480 127 0 75 -3 90 -22 110 l-21 23 -439 0 -438 0 0 70 0 70 431 0 431 0 29 29 29 29 0 451 0 450 -24 28 c-19 22 -35 29 -78 33 l-55 5 88 125 c49 69 96 144 105 168 16 41 16 44 -3 70 l-20 27 -172 3 -171 2 0 70 0 70 194 0 195 0 20 26 c17 22 21 41 21 101 0 65 -3 77 -25 98 -24 25 -26 25 -214 25 l-190 0 -3 199 c-3 195 -4 200 -27 225 l-24 26 -374 0 -373 0 -34 -32 c-25 -24 -41 -55 -61 -115 -14 -45 -24 -87 -20 -93 4 -6 101 -10 271 -10 l264 0 0 -100 0 -100 -426 0 c-234 0 -424 3 -422 8 2 4 36 57 77 117 85 128 135 221 127 241 -4 11 -40 14 -180 14 l-174 0 -36 -72 c-20 -40 -71 -125 -114 -188 l-77 -115 -149 -5 c-140 -5 -149 -6 -167 -29 -28 -35 -27 -158 2 -195 l20 -26 760 0 759 0 0 -70 0 -70 -717 0 c-653 0 -718 -1 -735 -17 -15 -13 -18 -31 -18 -101 0 -74 3 -89 22 -109 l21 -23 424 0 423 0 0 -75 0 -75 -437 -2 -438 -3 -3 -420 c-2 -278 1 -433 8 -457 14 -48 53 -94 101 -118 36 -19 61 -20 404 -20 l365 0 0 -70 0 -70 -442 -2 -443 -3 1 -63 c1 -53 6 -70 30 -105 17 -23 48 -52 69 -64 39 -22 45 -23 413 -23 l372 0 0 -75 0 -75 -540 0 -540 0 0 1445 0 1445 1280 0 1280 0 0 -1445z m-580 270 c0 -3 -24 -37 -52 -75 l-52 -70 -213 0 -213 0 0 75 0 75 265 0 c146 0 265 -2 265 -5z m-900 -465 l0 -70 -260 0 -260 0 0 70 0 70 260 0 260 0 0 -70z m940 -190 l0 -260 -285 0 -285 0 0 65 0 65 254 0 c152 0 257 4 261 10 3 5 -9 50 -26 100 -22 64 -40 98 -61 115 -29 25 -31 25 -229 25 l-199 0 0 70 0 70 285 0 285 0 0 -260z m-940 -195 l0 -65 -260 0 -260 0 0 65 0 65 260 0 260 0 0 -65z"/>
 <path d="M4137 3473 c-11 -11 -8 -239 4 -270 15 -40 57 -82 104 -104 38 -18 108 -19 1806 -19 971 0 1768 3 1771 6 3 3 -16 72 -44 154 -43 131 -54 153 -88 184 -21 19 -56 39 -77 45 -42 12 -3465 16 -3476 4z"/>
 <path d="M4527 2673 c-4 -3 -7 -536 -7 -1183 l0 -1176 23 -44 c30 -60 80 -97 146 -110 35 -6 501 -10 1318 -10 1354 0 1315 -1 1342 48 8 15 11 366 11 1172 0 1016 -2 1155 -15 1188 -20 47 -50 79 -97 103 -36 18 -80 19 -1376 19 -736 0 -1342 -3 -1345 -7z m2383 -1263 l0 -860 -970 0 -970 0 0 340 0 340 870 0 c763 0 871 2 876 15 4 8 -18 83 -46 165 -47 134 -57 155 -92 184 -22 19 -59 39 -83 45 -30 8 -277 11 -784 11 l-741 0 0 310 0 310 970 0 970 0 0 -860z"/>
 <path d="M847 2343 c-4 -3 -7 -43 -7 -87 0 -93 14 -126 76 -172 l37 -29 1213 -3 1212 -2 21 26 c18 23 21 41 21 124 0 81 -3 102 -19 121 l-19 24 -1264 3 c-696 1 -1267 -1 -1271 -5z"/>
 <path d="M663 1454 c-10 -27 6 -114 27 -150 12 -19 41 -45 64 -59 l43 -25 336 0 c403 0 377 -9 377 123 0 136 32 127 -443 127 -352 0 -398 -2 -404 -16z"/>
 <path d="M2273 1455 c-3 -9 -3 -38 -1 -65 6 -63 45 -123 98 -150 37 -19 58 -20 373 -20 l334 0 21 23 c19 20 22 35 22 99 0 61 -4 80 -21 102 l-20 26 -400 0 c-351 0 -400 -2 -406 -15z"/>
 <path d="M1719 1431 l-29 -29 0 -311 0 -311 -580 0 -580 0 0 285 0 286 -25 24 c-23 24 -28 25 -175 25 -147 0 -152 -1 -175 -25 l-25 -24 0 -368 c0 -417 -1 -411 79 -468 l43 -30 719 -3 719 -3 0 -59 0 -60 -647 -2 -648 -3 0 -91 c0 -84 2 -93 28 -127 16 -21 46 -46 67 -57 39 -20 61 -20 1445 -20 1392 0 1405 0 1425 20 18 18 20 33 20 129 0 167 72 151 -666 151 l-614 0 0 60 0 60 705 0 c614 0 710 2 743 15 49 21 81 52 103 100 17 36 19 71 19 392 l0 351 -26 31 -26 31 -153 0 -153 0 -26 -31 -26 -31 0 -279 0 -279 -580 0 -580 0 0 311 0 311 -29 29 -29 29 -147 0 -147 0 -29 -29z"/>
 <path d="M663 1134 c-12 -32 6 -119 34 -158 54 -76 54 -76 440 -76 l342 0 15 22 c11 16 16 46 16 103 0 72 -3 84 -23 103 -23 22 -26 22 -420 22 -352 0 -398 -2 -404 -16z"/>
 <path d="M2277 1143 c-14 -13 -6 -99 12 -140 12 -24 37 -55 62 -72 l42 -31 344 0 c409 0 383 -8 383 119 0 64 -4 83 -21 105 l-20 26 -398 0 c-219 0 -401 -3 -404 -7z"/>
 </g>

</svg>